<?xml version="1.0" standalone="no"?><!DOCTYPE svg PUBLIC "-//W3C//DTD SVG 1.1//EN" "http://www.w3.org/Graphics/SVG/1.1/DTD/svg11.dtd"><svg t="1753932402099" class="icon" viewBox="0 0 1025 1024" version="1.1" xmlns="http://www.w3.org/2000/svg" p-id="12210" width="16.015625" height="16" xmlns:xlink="http://www.w3.org/1999/xlink"><path d="M641.1872 16.4464c-33.384-8.7344-67.3456-14.0192-101.8448-15.6656-1.8624-0.0896-3.7088-0.5136-5.5616-0.7808-14.5376 0-29.0752 0-43.6128 0-10.04 0.8944-20.0912 1.6928-30.12 2.6992C383.2752 10.4 311.6256 33.9104 246.0976 74.5504 129.3872 146.9328 52.7808 249.6704 16.6368 382.2688c-9.1184 33.4528-14.1232 67.6272-15.8512 102.2688-0.1088 2.184-0.5168 4.352-0.7856 6.5264 0 13.904 0 27.808 0 41.712 0.88 10.2048 1.6464 20.4208 2.6608 30.6112 7.9648 80.08 33.216 154.3632 76.6384 222.0576 67.3296 104.9616 160.5392 176.8896 279.4224 214.9312 63.1536 20.2096 128.0256 27.4912 194.0848 21.6928 142.4128-12.5024 260.0688-73.6784 352.344-182.584 59.1232-69.7792 95.8432-150.5056 111.368-240.7088C1061.6208 336.72 898.6144 83.8016 641.1872 16.4464zM510.6448 966.9632c-250.144-0.104-453.7648-204.312-453.7568-455.064 0.0064-251.504 203.888-455.0784 455.7024-455.0176 251.0528 0.0608 454.5872 204.1824 454.4672 455.7792C966.9392 763.8736 762.8 967.0672 510.6448 966.9632z" p-id="12211" fill="#d81e06"></path><path d="M625.744 190.6784c0 1.8224 0 3.5328 0 5.2416 0 16.5888 0.1552 33.1808-0.112 49.7648-0.0656 4.0544 1.0608 5.9856 4.8304 7.7264 120.9536 55.896 186.4912 185.4496 160.1184 316.2256-30.688 152.1664-181.2704 251.8336-334.192 221.192C290.08 757.5056 189.1216 587.0896 240.9584 425.9408c25.6208-79.6496 77.4512-136.9824 153.056-172.768 3.1552-1.4944 4.328-3.088 4.2832-6.648-0.2144-17.0608-0.096-34.1248-0.096-51.1872 0-1.5232 0-3.048 0-4.7232C271.7936 232.2384 153.6432 369.7312 172.7584 549.2128 191.1952 722.336 339.6112 856.864 519.3728 853.1168c178.8576-3.7296 324.768-145.3136 333.4976-324.312C861.0976 360.0992 747.7296 230.5136 625.744 190.6784z" p-id="12212" fill="#d81e06"></path><path d="M483.5904 367.7456c0.0096 3.5792 0.376 7.3104 1.4304 10.7072 4.0944 13.1968 17.608 21.5392 30.9552 19.4704 13.96-2.1632 24.296-13.6896 24.3824-27.7824 0.1568-25.7376 0.0544-51.4768 0.056-77.2144 0.0016-49.8976-0.016-99.7952 0.0144-149.6928 0.0064-9.4304-3.2992-17.3664-10.7456-23.1696-9.1248-7.1104-19.2784-8.496-29.7856-3.4816-10.6512 5.0816-16.2624 13.8976-16.3104 25.6768-0.1504 37.7392-0.056 75.4784-0.0576 113.2176C483.5296 292.8992 483.4912 330.3232 483.5904 367.7456z" p-id="12213" fill="#d81e06"></path></svg>